<?xml version="1.0" standalone="no"?><!DOCTYPE svg PUBLIC "-//W3C//DTD SVG 1.1//EN" "http://www.w3.org/Graphics/SVG/1.1/DTD/svg11.dtd"><svg t="1637220909250" class="icon" viewBox="0 0 1024 1024" version="1.1" xmlns="http://www.w3.org/2000/svg" p-id="4493" xmlns:xlink="http://www.w3.org/1999/xlink" width="200" height="200"><defs><style type="text/css"></style></defs><path d="M798.72 170.666667l5.546667 0.298666a54.613333 54.613333 0 0 1 48.768 48.725334L853.333333 225.28v573.44l-0.298666 5.546667a54.613333 54.613333 0 0 1-48.725334 48.768L798.72 853.333333H225.28a54.613333 54.613333 0 0 1-54.314667-49.066666L170.666667 798.72V225.28a54.613333 54.613333 0 0 1 49.066666-54.314667L225.28 170.666667h573.44z m-13.653333 40.96H238.933333l-4.053333 0.298666a27.306667 27.306667 0 0 0-22.869333 22.528L211.626667 238.933333v546.133334l0.298666 4.053333a27.306667 27.306667 0 0 0 22.528 22.869333l4.48 0.384h546.133334l4.053333-0.298666a27.306667 27.306667 0 0 0 22.869333-22.528l0.384-4.48V238.933333a27.306667 27.306667 0 0 0-27.306666-27.306666zM511.146667 285.866667a20.48 20.48 0 0 1 20.48 20.48v185.173333h185.173333a20.48 20.48 0 0 1 3.669333 40.618667l-3.669333 0.341333h-185.173333v183.466667c-0.128 0.597333 0 1.152 0 1.706666a20.48 20.48 0 1 1-40.96 0l0.085333-0.853333 0.085333-0.853333H490.666667v-183.466667H307.2c-0.554667-0.128-1.152 0-1.706667 0a20.48 20.48 0 0 1-3.669333-40.618667l3.669333-0.341333 0.853334 0.085333 0.853333 0.085334v-0.170667h183.466667V306.346667a20.48 20.48 0 0 1 16.810666-20.138667z" p-id="4494" fill="#707070"></path></svg>