<?xml version="1.0" standalone="no"?><!DOCTYPE svg PUBLIC "-//W3C//DTD SVG 1.1//EN" "http://www.w3.org/Graphics/SVG/1.1/DTD/svg11.dtd"><svg t="1636627523031" class="icon" viewBox="0 0 1024 1024" version="1.1" xmlns="http://www.w3.org/2000/svg" p-id="11287" xmlns:xlink="http://www.w3.org/1999/xlink" width="32" height="32"><defs><style type="text/css"></style></defs><path d="M756.537 170.667H109.532c-55.02 0-99.343 44.322-99.343 99.343v647.005c0 55.02 44.322 99.343 99.343 99.343h647.005c55.021 0 99.344-44.322 99.344-99.343V270.01c0-55.02-44.323-99.343-99.344-99.343z m22.926 746.348a22.83 22.83 0 0 1-22.926 22.925H109.532a22.83 22.83 0 0 1-22.925-22.925V270.01a22.83 22.83 0 0 1 22.925-22.925h647.005a22.83 22.83 0 0 1 22.926 22.925v647.005z" p-id="11288" fill="#707070"></path><path d="M914.468 12.736H267.463c-20.888 0-38.21 17.322-38.21 38.21s17.322 38.208 38.21 38.208h647.005a22.83 22.83 0 0 1 22.925 22.926v647.005c0 20.887 17.321 38.209 38.209 38.209s38.209-17.322 38.209-38.21V112.08c0-55.021-44.322-99.344-99.343-99.344z" p-id="11289" fill="#707070"></path></svg>