<?xml version="1.0" standalone="no"?><!DOCTYPE svg PUBLIC "-//W3C//DTD SVG 1.1//EN" "http://www.w3.org/Graphics/SVG/1.1/DTD/svg11.dtd"><svg t="1636627550603" class="icon" viewBox="0 0 1024 1024" version="1.1" xmlns="http://www.w3.org/2000/svg" p-id="11647" xmlns:xlink="http://www.w3.org/1999/xlink" width="32" height="32"><defs><style type="text/css"></style></defs><path d="M957.44 234.496H66.56c-20.992 0-38.4-17.408-38.4-38.4s17.408-38.4 38.4-38.4h890.88c20.992 0 38.4 17.408 38.4 38.4s-17.408 38.4-38.4 38.4z" p-id="11648" fill="#707070"></path><path d="M711.68 179.2h-76.8v-74.24H389.12v74.24h-76.8V86.016c0-31.744 25.6-57.856 57.344-57.856h284.16c31.744 0 57.856 26.112 57.856 57.856V179.2z m61.952 816.64H250.368c-19.456 0-35.84-14.848-38.4-34.304l-72.192-645.12c-2.56-20.992 12.8-39.936 33.792-42.496 20.992-2.56 39.936 12.8 42.496 33.792l68.608 610.816h454.656l68.608-610.816c2.56-20.992 21.504-36.352 42.496-33.792 20.992 2.56 36.352 21.504 33.792 42.496l-72.192 645.12c-2.56 19.456-18.944 34.304-38.4 34.304z" p-id="11649" fill="#707070"></path><path d="M400.384 714.24c-20.992 0-38.4-17.408-38.4-38.4V440.32c0-20.992 17.408-38.4 38.4-38.4s38.4 17.408 38.4 38.4v235.52c0.512 20.992-16.896 38.4-38.4 38.4z m223.232 0c-20.992 0-38.4-17.408-38.4-38.4V440.32c0-20.992 17.408-38.4 38.4-38.4s38.4 17.408 38.4 38.4v235.52c-0.512 20.992-17.408 38.4-38.4 38.4z" p-id="11650" fill="#707070"></path></svg>