<?xml version="1.0" standalone="no"?><!DOCTYPE svg PUBLIC "-//W3C//DTD SVG 1.1//EN" "http://www.w3.org/Graphics/SVG/1.1/DTD/svg11.dtd"><svg t="1636627747483" class="icon" viewBox="0 0 1024 1024" version="1.1" xmlns="http://www.w3.org/2000/svg" p-id="785" xmlns:xlink="http://www.w3.org/1999/xlink" width="32" height="32"><defs><style type="text/css"></style></defs><path d="M204.9024 179.2v102.4a50.8416 50.8416 0 0 0 51.2 51.2h512a50.8416 50.8416 0 0 0 51.2-51.2v-102.7072a25.6 25.6 0 0 1 25.6-25.6 25.6 25.6 0 0 1 25.6 25.6v102.4a102.4 102.4 0 0 1-102.4 102.4h-512a102.4 102.4 0 0 1-102.4-102.4v-102.4a25.6 25.6 0 0 1 25.6-25.6 25.6 25.6 0 0 1 25.6 25.9072z" fill="#8D8D8D" p-id="786"></path><path d="M819.0976 844.6976v-102.4a50.8416 50.8416 0 0 0-51.2-51.2h-512a50.8416 50.8416 0 0 0-51.2 51.2v102.7072a25.6 25.6 0 0 1-25.6 25.6 25.6 25.6 0 0 1-25.6-25.6v-102.4a102.4 102.4 0 0 1 102.4-102.4h512a102.4 102.4 0 0 1 102.4 102.4v102.4a25.6 25.6 0 0 1-25.6 25.6 25.6 25.6 0 0 1-25.6-25.9072z" fill="#8D8D8D" p-id="787"></path><path d="M153.6 537.6m0-25.6l0 0q0-25.6 25.6-25.6l665.6 0q25.6 0 25.6 25.6l0 0q0 25.6-25.6 25.6l-665.6 0q-25.6 0-25.6-25.6Z" fill="#8D8D8D" p-id="788"></path></svg>