<?xml version="1.0" standalone="no"?><!DOCTYPE svg PUBLIC "-//W3C//DTD SVG 1.1//EN" "http://www.w3.org/Graphics/SVG/1.1/DTD/svg11.dtd"><svg t="1638790874060" class="icon" viewBox="0 0 1024 1024" version="1.1" xmlns="http://www.w3.org/2000/svg" p-id="50085" xmlns:xlink="http://www.w3.org/1999/xlink" width="32" height="32"><defs><style type="text/css"></style></defs><path d="M247.741935 197.532903l6.606452 23.783226h524.552258c13.212903 0 23.783226 10.570323 23.783226 23.783226v572.11871c0 13.212903-10.570323 23.783226-23.783226 23.783225H254.348387c-13.212903 0-23.783226-10.570323-23.783226-23.783225V245.099355c0-13.212903 10.570323-23.783226 23.783226-23.783226l6.606452-23.783226-6.606452-23.783226c-39.63871 0-71.349677 31.710968-71.349677 71.349678v572.11871c0 39.63871 31.710968 71.349677 71.349677 71.349677h524.552258c39.63871 0 71.349677-31.710968 71.349678-71.349677V245.099355c0-39.63871-31.710968-71.349677-71.349678-71.349678H254.348387v23.783226h-6.606452z" p-id="50086" fill="#707070"></path><path d="M325.698065 149.966452v95.132903c0 13.212903 10.570323 23.783226 23.783225 23.783226s23.783226-10.570323 23.783226-23.783226V149.966452c0-13.212903-10.570323-23.783226-23.783226-23.783226-13.212903-0.660645-23.783226 10.570323-23.783225 23.783226" p-id="50087" fill="#707070"></path><path d="M317.770323 753.796129c-13.212903 0-23.783226-10.570323-23.783226-23.783226s10.570323-23.783226 23.783226-23.783226h397.708387c13.212903 0 23.783226 10.570323 23.783225 23.783226s-10.570323 23.783226-23.783225 23.783226H317.770323" p-id="50088" fill="#707070"></path><path d="M341.553548 562.869677v95.132904c0 13.212903 10.570323 23.783226 23.783226 23.783225s23.783226-10.570323 23.783226-23.783225V562.869677c0-13.212903-10.570323-23.783226-23.783226-23.783225s-23.783226 10.570323-23.783226 23.783225" p-id="50089" fill="#707070"></path><path d="M437.347097 404.314839v254.348387c0 13.212903 10.570323 23.783226 23.783226 23.783226s23.783226-10.570323 23.783225-23.783226V404.314839c0-13.212903-10.570323-23.783226-23.783225-23.783226-13.212903-0.660645-23.783226 10.570323-23.783226 23.783226" p-id="50090" fill="#707070"></path><path d="M548.335484 515.303226v143.36c0 13.212903 10.570323 23.783226 23.783226 23.783226s23.783226-10.570323 23.783225-23.783226V515.303226c0-13.212903-10.570323-23.783226-23.783225-23.783226S548.335484 502.090323 548.335484 515.303226" p-id="50091" fill="#707070"></path><path d="M644.129032 451.88129v206.781936c0 13.212903 10.570323 23.783226 23.783226 23.783226s23.783226-10.570323 23.783226-23.783226V451.88129c0-13.212903-10.570323-23.783226-23.783226-23.783225s-23.783226 10.570323-23.783226 23.783225" p-id="50092" fill="#707070"></path><path d="M659.984516 149.966452v95.132903c0 13.212903 10.570323 23.783226 23.783226 23.783226s23.783226-10.570323 23.783226-23.783226V149.966452c0-13.212903-10.570323-23.783226-23.783226-23.783226s-23.783226 10.570323-23.783226 23.783226" p-id="50093" fill="#707070"></path><path d="M500.769032 149.966452v95.132903c0 13.212903 10.570323 23.783226 23.783226 23.783226s23.783226-10.570323 23.783226-23.783226V149.966452c0-13.212903-10.570323-23.783226-23.783226-23.783226-13.212903-0.660645-23.783226 10.570323-23.783226 23.783226" p-id="50094" fill="#707070"></path></svg>