<?xml version="1.0" standalone="no"?><!DOCTYPE svg PUBLIC "-//W3C//DTD SVG 1.1//EN" "http://www.w3.org/Graphics/SVG/1.1/DTD/svg11.dtd"><svg t="1638791403573" class="icon" viewBox="0 0 1024 1024" version="1.1" xmlns="http://www.w3.org/2000/svg" p-id="1163" xmlns:xlink="http://www.w3.org/1999/xlink" width="32" height="32"><defs><style type="text/css"></style></defs><path d="M494.5 926c-53.5 0-105.4-10.5-154.3-31.2-47.2-20-89.6-48.6-126-85-36.4-36.4-65-78.8-85-126C108.5 634.9 98 583 98 529.5c0-53.4 10.5-105.3 31.1-154.1 19.9-47.2 48.4-89.5 84.7-125.9 36.3-36.4 78.6-65 125.7-85 48.8-20.7 100.6-31.3 154-31.4l25.1-0.1v372.4H891l-0.1 25.1c-0.1 53.4-10.7 105.2-31.4 154-20 47.1-48.6 89.4-85 125.7s-78.8 64.8-125.9 84.7C599.8 915.5 547.9 926 494.5 926z m-25.9-742C289.7 197.3 148 347.3 148 529.5 148 720.6 303.4 876 494.5 876c182.2 0 332.2-141.7 345.5-320.6H468.6V184z" p-id="1164" fill="#ffffff"></path><path d="M583 98v343h343c0-189.4-153.6-343-343-343z" p-id="1165" fill="#ffffff"></path></svg>